<?xml version="1.0" standalone="no"?><svg xmlns="http://www.w3.org/2000/svg" viewBox="0 0 1440 320"><path fill="#fd4564" fill-opacity="1" d="M0,128L34.3,122.7C68.6,117,137,107,206,138.7C274.3,171,343,245,411,250.7C480,256,549,192,617,160C685.7,128,754,128,823,138.7C891.4,149,960,171,1029,202.7C1097.1,235,1166,277,1234,266.7C1302.9,256,1371,192,1406,160L1440,128L1440,0L1405.7,0C1371.4,0,1303,0,1234,0C1165.7,0,1097,0,1029,0C960,0,891,0,823,0C754.3,0,686,0,617,0C548.6,0,480,0,411,0C342.9,0,274,0,206,0C137.1,0,69,0,34,0L0,0Z"></path></svg>